<svg xmlns="http://www.w3.org/2000/svg" width="36.27" height="36.275" viewBox="0 0 36.27 36.275">
  <g id="Group_24" data-name="Group 24" transform="translate(-1120.14 -676.591)">
    <path id="Path_17" data-name="Path 17" d="M1156.41,695.131a15.113,15.113,0,0,0-.39-3.708h-17.38v6.731h10.2a8.8,8.8,0,0,1-3.78,5.885l-.04.225,5.5,4.171.38.038A17.543,17.543,0,0,0,1156.41,695.131Z" transform="translate(0 0)" fill="#4285f4"/>
    <path id="Path_18" data-name="Path 18" d="M1138.64,712.866a17.866,17.866,0,0,0,12.26-4.393l-5.84-4.434a11.45,11.45,0,0,1-16.95-5.723l-.21.018-5.72,4.333-.07.2A18.525,18.525,0,0,0,1138.64,712.866Z" fill="#34a853"/>
    <path id="Path_19" data-name="Path 19" d="M1128.11,698.316a10.98,10.98,0,0,1-.61-3.587,11.527,11.527,0,0,1,.59-3.588l-.01-.24-5.78-4.4-.19.088a17.809,17.809,0,0,0,0,16.283Z" transform="translate(0 0)" fill="#fbbc05"/>
    <path id="Path_20" data-name="Path 20" d="M1138.64,683.6a10.373,10.373,0,0,1,7.16,2.7l5.22-5a17.982,17.982,0,0,0-12.38-4.716,18.524,18.524,0,0,0-16.53,10l5.98,4.554A11.171,11.171,0,0,1,1138.64,683.6Z" transform="translate(0 0)" fill="#eb4335"/>
  </g>
</svg>
